<svg width="29" height="28" viewBox="0 0 29 28" fill="none" xmlns="http://www.w3.org/2000/svg">
<path d="M19.3095 14.671L11.2703 3L3.81248 12.2029C2.05247 14.3747 1.47794 17.2753 2.27719 19.9541L2.57232 20.9433C3.46755 23.9437 6.22698 26 9.35811 26H13.4366C15.0121 26 16.5689 25.6588 18 25V25M19.3095 14.671L21.4865 12L25.697 17.8911C26.5277 19.0535 26.8358 20.5097 26.547 21.909C26.0554 24.2911 23.9578 26 21.5254 26H20.7266C19.7741 26 18.7778 25.4662 18 25M19.3095 14.671L16.8016 17.5717C15.6787 18.9071 15.3119 20.7218 15.8279 22.3885C16.211 23.6261 16.942 24.3658 18 25" stroke="white" stroke-width="3"/>
</svg>
